<?xml version="1.0" encoding="UTF-8"?>
<svg id="Ebene_2" data-name="Ebene 2" xmlns="http://www.w3.org/2000/svg" viewBox="0 0 490.6 469.94">
  <defs>
    <style>
      .cls-1, .cls-2 {
        fill: none;
        stroke: #fff;
        stroke-width: 4.8px;
      }

      .cls-1, .cls-2, .cls-3, .cls-4 {
        font-size: 16px;
        isolation: isolate;
      }

      .cls-1, .cls-4 {
        font-family: CourierNewPS-ItalicMT, 'Courier New';
        font-style: italic;
      }

      .cls-5, .cls-6 {
        stroke: #000;
        stroke-width: 2px;
      }

      .cls-2, .cls-3 {
        font-family: CourierNewPSMT, 'Courier New';
      }

      .cls-6 {
        fill: #fff;
      }
    </style>
  </defs>
  <g id="Ebene_1-2" data-name="Ebene 1">
    <path class="cls-5" d="M21.6,392.33l212.31,76.67"/>
    <path class="cls-5" d="M56.99,392.33l176.92,76.67"/>
    <path class="cls-5" d="M92.37,392.33l141.54,76.67"/>
    <path class="cls-5" d="M163.14,392.33l70.77,76.67"/>
    <path class="cls-5" d="M198.53,392.33l35.38,76.67"/>
    <path class="cls-5" d="M233.91,392.33v76.67"/>
    <path class="cls-5" d="M304.68,315.67l-70.77,153.33"/>
    <path class="cls-5" d="M340.06,315.67l-106.15,153.33"/>
    <path class="cls-5" d="M375.45,392.33l-141.54,76.67"/>
    <path class="cls-5" d="M410.83,392.33l-176.92,76.67"/>
    <path class="cls-5" d="M446.22,392.33l-212.31,76.67"/>
    <path class="cls-5" d="M410.83,315.67l35.38,76.67"/>
    <path class="cls-5" d="M446.22,315.67v76.67"/>
    <path class="cls-5" d="M410.83,239l35.38,76.67"/>
    <path class="cls-5" d="M269.3,162.33l141.54,76.67"/>
    <path class="cls-5" d="M375.45,162.33l35.38,76.67"/>
    <path class="cls-5" d="M481.6,162.33l-70.77,76.67"/>
    <path class="cls-5" d="M269.3,85.67l212.31,76.67"/>
    <path class="cls-5" d="M340.06,85.67l141.54,76.67"/>
    <path class="cls-5" d="M233.91,9l106.15,76.67"/>
    <path class="cls-5" d="M233.91,9l35.38,76.67"/>
    <path class="cls-5" d="M233.91,85.67l141.54,76.67"/>
    <path class="cls-5" d="M340.06,85.67l35.38,76.67"/>
    <path class="cls-5" d="M233.91,9l106.15,76.67"/>
    <path class="cls-5" d="M233.91,9v76.67"/>
    <path class="cls-5" d="M233.91,85.67l35.38,76.67"/>
    <path class="cls-5" d="M269.3,85.67v76.67"/>
    <path class="cls-5" d="M233.91,9l35.38,76.67"/>
    <path class="cls-5" d="M233.91,9v76.67"/>
    <path class="cls-5" d="M410.83,239v76.67"/>
    <path class="cls-5" d="M269.3,162.33l141.54,76.67"/>
    <path class="cls-5" d="M375.45,162.33l35.38,76.67"/>
    <path class="cls-5" d="M481.6,162.33l-70.77,76.67"/>
    <path class="cls-5" d="M269.3,85.67l212.31,76.67"/>
    <path class="cls-5" d="M340.06,85.67l141.54,76.67"/>
    <path class="cls-5" d="M233.91,9l106.15,76.67"/>
    <path class="cls-5" d="M233.91,9l35.38,76.67"/>
    <path class="cls-5" d="M233.91,85.67l141.54,76.67"/>
    <path class="cls-5" d="M340.06,85.67l35.38,76.67"/>
    <path class="cls-5" d="M233.91,9l106.15,76.67"/>
    <path class="cls-5" d="M233.91,9v76.67"/>
    <path class="cls-5" d="M233.91,85.67l35.38,76.67"/>
    <path class="cls-5" d="M269.3,85.67v76.67"/>
    <path class="cls-5" d="M233.91,9l35.38,76.67"/>
    <path class="cls-5" d="M233.91,9v76.67"/>
    <path class="cls-5" d="M375.45,315.67l35.38,76.67"/>
    <path class="cls-5" d="M446.22,315.67l-35.38,76.67"/>
    <path class="cls-5" d="M410.83,239l35.38,76.67"/>
    <path class="cls-5" d="M269.3,162.33l141.54,76.67"/>
    <path class="cls-5" d="M375.45,162.33l35.38,76.67"/>
    <path class="cls-5" d="M481.6,162.33l-70.77,76.67"/>
    <path class="cls-5" d="M269.3,85.67l212.31,76.67"/>
    <path class="cls-5" d="M340.06,85.67l141.54,76.67"/>
    <path class="cls-5" d="M233.91,9l106.15,76.67"/>
    <path class="cls-5" d="M233.91,9l35.38,76.67"/>
    <path class="cls-5" d="M233.91,85.67l141.54,76.67"/>
    <path class="cls-5" d="M340.06,85.67l35.38,76.67"/>
    <path class="cls-5" d="M233.91,9l106.15,76.67"/>
    <path class="cls-5" d="M233.91,9v76.67"/>
    <path class="cls-5" d="M233.91,85.67l35.38,76.67"/>
    <path class="cls-5" d="M269.3,85.67v76.67"/>
    <path class="cls-5" d="M233.91,9l35.38,76.67"/>
    <path class="cls-5" d="M233.91,9v76.67"/>
    <path class="cls-5" d="M410.83,239l-35.38,76.67"/>
    <path class="cls-5" d="M269.3,162.33l141.54,76.67"/>
    <path class="cls-5" d="M375.45,162.33l35.38,76.67"/>
    <path class="cls-5" d="M481.6,162.33l-70.77,76.67"/>
    <path class="cls-5" d="M269.3,85.67l212.31,76.67"/>
    <path class="cls-5" d="M340.06,85.67l141.54,76.67"/>
    <path class="cls-5" d="M233.91,9l106.15,76.67"/>
    <path class="cls-5" d="M233.91,9l35.38,76.67"/>
    <path class="cls-5" d="M233.91,85.67l141.54,76.67"/>
    <path class="cls-5" d="M340.06,85.67l35.38,76.67"/>
    <path class="cls-5" d="M233.91,9l106.15,76.67"/>
    <path class="cls-5" d="M233.91,9v76.67"/>
    <path class="cls-5" d="M233.91,85.67l35.38,76.67"/>
    <path class="cls-5" d="M269.3,85.67v76.67"/>
    <path class="cls-5" d="M233.91,9l35.38,76.67"/>
    <path class="cls-5" d="M233.91,9v76.67"/>
    <path class="cls-5" d="M375.45,315.67v76.67"/>
    <path class="cls-5" d="M410.83,315.67l-35.38,76.67"/>
    <path class="cls-5" d="M410.83,239v76.67"/>
    <path class="cls-5" d="M269.3,162.33l141.54,76.67"/>
    <path class="cls-5" d="M375.45,162.33l35.38,76.67"/>
    <path class="cls-5" d="M481.6,162.33l-70.77,76.67"/>
    <path class="cls-5" d="M269.3,85.67l212.31,76.67"/>
    <path class="cls-5" d="M340.06,85.67l141.54,76.67"/>
    <path class="cls-5" d="M233.91,9l106.15,76.67"/>
    <path class="cls-5" d="M233.91,9l35.38,76.67"/>
    <path class="cls-5" d="M233.91,85.67l141.54,76.67"/>
    <path class="cls-5" d="M340.06,85.67l35.38,76.67"/>
    <path class="cls-5" d="M233.91,9l106.15,76.67"/>
    <path class="cls-5" d="M233.91,9v76.67"/>
    <path class="cls-5" d="M233.91,85.67l35.38,76.67"/>
    <path class="cls-5" d="M269.3,85.67v76.67"/>
    <path class="cls-5" d="M233.91,9l35.38,76.67"/>
    <path class="cls-5" d="M233.91,9v76.67"/>
    <path class="cls-5" d="M410.83,239l-35.38,76.67"/>
    <path class="cls-5" d="M269.3,162.33l141.54,76.67"/>
    <path class="cls-5" d="M375.45,162.33l35.38,76.67"/>
    <path class="cls-5" d="M481.6,162.33l-70.77,76.67"/>
    <path class="cls-5" d="M269.3,85.67l212.31,76.67"/>
    <path class="cls-5" d="M340.06,85.67l141.54,76.67"/>
    <path class="cls-5" d="M233.91,9l106.15,76.67"/>
    <path class="cls-5" d="M233.91,9l35.38,76.67"/>
    <path class="cls-5" d="M233.91,85.67l141.54,76.67"/>
    <path class="cls-5" d="M340.06,85.67l35.38,76.67"/>
    <path class="cls-5" d="M233.91,9l106.15,76.67"/>
    <path class="cls-5" d="M233.91,9v76.67"/>
    <path class="cls-5" d="M233.91,85.67l35.38,76.67"/>
    <path class="cls-5" d="M269.3,85.67v76.67"/>
    <path class="cls-5" d="M233.91,9l35.38,76.67"/>
    <path class="cls-5" d="M233.91,9v76.67"/>
    <path class="cls-5" d="M304.68,239l35.38,76.67"/>
    <path class="cls-5" d="M56.99,162.33l247.69,76.67"/>
    <path class="cls-5" d="M163.14,162.33l141.54,76.67"/>
    <path class="cls-5" d="M481.6,162.33l-176.92,76.67"/>
    <path class="cls-5" d="M269.3,85.67l212.31,76.67"/>
    <path class="cls-5" d="M340.06,85.67l141.54,76.67"/>
    <path class="cls-5" d="M233.91,9l106.15,76.67"/>
    <path class="cls-5" d="M233.91,9l35.38,76.67"/>
    <path class="cls-5" d="M92.37,85.67l70.77,76.67"/>
    <path class="cls-5" d="M340.06,85.67l-176.92,76.67"/>
    <path class="cls-5" d="M233.91,9l106.15,76.67"/>
    <path class="cls-5" d="M233.91,9L92.37,85.67"/>
    <path class="cls-5" d="M92.37,85.67l-35.38,76.67"/>
    <path class="cls-5" d="M269.3,85.67L56.99,162.33"/>
    <path class="cls-5" d="M233.91,9l35.38,76.67"/>
    <path class="cls-5" d="M233.91,9L92.37,85.67"/>
    <path class="cls-5" d="M304.68,239v76.67"/>
    <path class="cls-5" d="M56.99,162.33l247.69,76.67"/>
    <path class="cls-5" d="M163.14,162.33l141.54,76.67"/>
    <path class="cls-5" d="M481.6,162.33l-176.92,76.67"/>
    <path class="cls-5" d="M269.3,85.67l212.31,76.67"/>
    <path class="cls-5" d="M340.06,85.67l141.54,76.67"/>
    <path class="cls-5" d="M233.91,9l106.15,76.67"/>
    <path class="cls-5" d="M233.91,9l35.38,76.67"/>
    <path class="cls-5" d="M92.37,85.67l70.77,76.67"/>
    <path class="cls-5" d="M340.06,85.67l-176.92,76.67"/>
    <path class="cls-5" d="M233.91,9l106.15,76.67"/>
    <path class="cls-5" d="M233.91,9L92.37,85.67"/>
    <path class="cls-5" d="M92.37,85.67l-35.38,76.67"/>
    <path class="cls-5" d="M269.3,85.67L56.99,162.33"/>
    <path class="cls-5" d="M233.91,9l35.38,76.67"/>
    <path class="cls-5" d="M233.91,9L92.37,85.67"/>
    <path class="cls-5" d="M198.53,315.67l35.38,76.67"/>
    <path class="cls-5" d="M233.91,315.67v76.67"/>
    <path class="cls-5" d="M198.53,239l35.38,76.67"/>
    <path class="cls-5" d="M21.6,162.33l176.92,76.67"/>
    <path class="cls-5" d="M163.14,162.33l35.38,76.67"/>
    <path class="cls-5" d="M375.45,162.33l-176.92,76.67"/>
    <path class="cls-5" d="M233.91,85.67l141.54,76.67"/>
    <path class="cls-5" d="M340.06,85.67l35.38,76.67"/>
    <path class="cls-5" d="M233.91,9l106.15,76.67"/>
    <path class="cls-5" d="M233.91,9v76.67"/>
    <path class="cls-5" d="M92.37,85.67l70.77,76.67"/>
    <path class="cls-5" d="M340.06,85.67l-176.92,76.67"/>
    <path class="cls-5" d="M233.91,9l106.15,76.67"/>
    <path class="cls-5" d="M233.91,9L92.37,85.67"/>
    <path class="cls-5" d="M92.37,85.67L21.6,162.33"/>
    <path class="cls-5" d="M233.91,85.67L21.6,162.33"/>
    <path class="cls-5" d="M233.91,9v76.67"/>
    <path class="cls-5" d="M233.91,9L92.37,85.67"/>
    <path class="cls-5" d="M198.53,239v76.67"/>
    <path class="cls-5" d="M21.6,162.33l176.92,76.67"/>
    <path class="cls-5" d="M163.14,162.33l35.38,76.67"/>
    <path class="cls-5" d="M375.45,162.33l-176.92,76.67"/>
    <path class="cls-5" d="M233.91,85.67l141.54,76.67"/>
    <path class="cls-5" d="M340.06,85.67l35.38,76.67"/>
    <path class="cls-5" d="M233.91,9l106.15,76.67"/>
    <path class="cls-5" d="M233.91,9v76.67"/>
    <path class="cls-5" d="M92.37,85.67l70.77,76.67"/>
    <path class="cls-5" d="M340.06,85.67l-176.92,76.67"/>
    <path class="cls-5" d="M233.91,9l106.15,76.67"/>
    <path class="cls-5" d="M233.91,9L92.37,85.67"/>
    <path class="cls-5" d="M92.37,85.67L21.6,162.33"/>
    <path class="cls-5" d="M233.91,85.67L21.6,162.33"/>
    <path class="cls-5" d="M233.91,9v76.67"/>
    <path class="cls-5" d="M233.91,9L92.37,85.67"/>
    <path class="cls-5" d="M163.14,315.67l35.38,76.67"/>
    <path class="cls-5" d="M233.91,315.67l-35.38,76.67"/>
    <path class="cls-5" d="M198.53,239l35.38,76.67"/>
    <path class="cls-5" d="M21.6,162.33l176.92,76.67"/>
    <path class="cls-5" d="M163.14,162.33l35.38,76.67"/>
    <path class="cls-5" d="M375.45,162.33l-176.92,76.67"/>
    <path class="cls-5" d="M233.91,85.67l141.54,76.67"/>
    <path class="cls-5" d="M340.06,85.67l35.38,76.67"/>
    <path class="cls-5" d="M233.91,9l106.15,76.67"/>
    <path class="cls-5" d="M233.91,9v76.67"/>
    <path class="cls-5" d="M92.37,85.67l70.77,76.67"/>
    <path class="cls-5" d="M340.06,85.67l-176.92,76.67"/>
    <path class="cls-5" d="M233.91,9l106.15,76.67"/>
    <path class="cls-5" d="M233.91,9L92.37,85.67"/>
    <path class="cls-5" d="M92.37,85.67L21.6,162.33"/>
    <path class="cls-5" d="M233.91,85.67L21.6,162.33"/>
    <path class="cls-5" d="M233.91,9v76.67"/>
    <path class="cls-5" d="M233.91,9L92.37,85.67"/>
    <path class="cls-5" d="M198.53,239l-35.38,76.67"/>
    <path class="cls-5" d="M21.6,162.33l176.92,76.67"/>
    <path class="cls-5" d="M163.14,162.33l35.38,76.67"/>
    <path class="cls-5" d="M375.45,162.33l-176.92,76.67"/>
    <path class="cls-5" d="M233.91,85.67l141.54,76.67"/>
    <path class="cls-5" d="M340.06,85.67l35.38,76.67"/>
    <path class="cls-5" d="M233.91,9l106.15,76.67"/>
    <path class="cls-5" d="M233.91,9v76.67"/>
    <path class="cls-5" d="M92.37,85.67l70.77,76.67"/>
    <path class="cls-5" d="M340.06,85.67l-176.92,76.67"/>
    <path class="cls-5" d="M233.91,9l106.15,76.67"/>
    <path class="cls-5" d="M233.91,9L92.37,85.67"/>
    <path class="cls-5" d="M92.37,85.67L21.6,162.33"/>
    <path class="cls-5" d="M233.91,85.67L21.6,162.33"/>
    <path class="cls-5" d="M233.91,9v76.67"/>
    <path class="cls-5" d="M233.91,9L92.37,85.67"/>
    <path class="cls-5" d="M163.14,315.67v76.67"/>
    <path class="cls-5" d="M198.53,315.67l-35.38,76.67"/>
    <path class="cls-5" d="M198.53,239v76.67"/>
    <path class="cls-5" d="M21.6,162.33l176.92,76.67"/>
    <path class="cls-5" d="M163.14,162.33l35.38,76.67"/>
    <path class="cls-5" d="M375.45,162.33l-176.92,76.67"/>
    <path class="cls-5" d="M233.91,85.67l141.54,76.67"/>
    <path class="cls-5" d="M340.06,85.67l35.38,76.67"/>
    <path class="cls-5" d="M233.91,9l106.15,76.67"/>
    <path class="cls-5" d="M233.91,9v76.67"/>
    <path class="cls-5" d="M92.37,85.67l70.77,76.67"/>
    <path class="cls-5" d="M340.06,85.67l-176.92,76.67"/>
    <path class="cls-5" d="M233.91,9l106.15,76.67"/>
    <path class="cls-5" d="M233.91,9L92.37,85.67"/>
    <path class="cls-5" d="M92.37,85.67L21.6,162.33"/>
    <path class="cls-5" d="M233.91,85.67L21.6,162.33"/>
    <path class="cls-5" d="M233.91,9v76.67"/>
    <path class="cls-5" d="M233.91,9L92.37,85.67"/>
    <path class="cls-5" d="M198.53,239l-35.38,76.67"/>
    <path class="cls-5" d="M21.6,162.33l176.92,76.67"/>
    <path class="cls-5" d="M163.14,162.33l35.38,76.67"/>
    <path class="cls-5" d="M375.45,162.33l-176.92,76.67"/>
    <path class="cls-5" d="M233.91,85.67l141.54,76.67"/>
    <path class="cls-5" d="M340.06,85.67l35.38,76.67"/>
    <path class="cls-5" d="M233.91,9l106.15,76.67"/>
    <path class="cls-5" d="M233.91,9v76.67"/>
    <path class="cls-5" d="M92.37,85.67l70.77,76.67"/>
    <path class="cls-5" d="M340.06,85.67l-176.92,76.67"/>
    <path class="cls-5" d="M233.91,9l106.15,76.67"/>
    <path class="cls-5" d="M233.91,9L92.37,85.67"/>
    <path class="cls-5" d="M92.37,85.67L21.6,162.33"/>
    <path class="cls-5" d="M233.91,85.67L21.6,162.33"/>
    <path class="cls-5" d="M233.91,9v76.67"/>
    <path class="cls-5" d="M233.91,9L92.37,85.67"/>
    <path class="cls-5" d="M56.99,315.67l35.38,76.67"/>
    <path class="cls-5" d="M92.37,315.67v76.67"/>
    <path class="cls-5" d="M56.99,239l35.38,76.67"/>
    <path class="cls-5" d="M21.6,162.33l35.38,76.67"/>
    <path class="cls-5" d="M56.99,162.33v76.67"/>
    <path class="cls-5" d="M269.3,162.33L56.99,239"/>
    <path class="cls-5" d="M233.91,85.67l35.38,76.67"/>
    <path class="cls-5" d="M269.3,85.67v76.67"/>
    <path class="cls-5" d="M233.91,9l35.38,76.67"/>
    <path class="cls-5" d="M233.91,9v76.67"/>
    <path class="cls-5" d="M92.37,85.67l-35.38,76.67"/>
    <path class="cls-5" d="M269.3,85.67L56.99,162.33"/>
    <path class="cls-5" d="M233.91,9l35.38,76.67"/>
    <path class="cls-5" d="M233.91,9L92.37,85.67"/>
    <path class="cls-5" d="M92.37,85.67L21.6,162.33"/>
    <path class="cls-5" d="M233.91,85.67L21.6,162.33"/>
    <path class="cls-5" d="M233.91,9v76.67"/>
    <path class="cls-5" d="M233.91,9L92.37,85.67"/>
    <path class="cls-5" d="M56.99,239v76.67"/>
    <path class="cls-5" d="M21.6,162.33l35.38,76.67"/>
    <path class="cls-5" d="M56.99,162.33v76.67"/>
    <path class="cls-5" d="M269.3,162.33L56.99,239"/>
    <path class="cls-5" d="M233.91,85.67l35.38,76.67"/>
    <path class="cls-5" d="M269.3,85.67v76.67"/>
    <path class="cls-5" d="M233.91,9l35.38,76.67"/>
    <path class="cls-5" d="M233.91,9v76.67"/>
    <path class="cls-5" d="M92.37,85.67l-35.38,76.67"/>
    <path class="cls-5" d="M269.3,85.67L56.99,162.33"/>
    <path class="cls-5" d="M233.91,9l35.38,76.67"/>
    <path class="cls-5" d="M233.91,9L92.37,85.67"/>
    <path class="cls-5" d="M92.37,85.67L21.6,162.33"/>
    <path class="cls-5" d="M233.91,85.67L21.6,162.33"/>
    <path class="cls-5" d="M233.91,9v76.67"/>
    <path class="cls-5" d="M233.91,9L92.37,85.67"/>
    <path class="cls-5" d="M21.6,315.67l35.38,76.67"/>
    <path class="cls-5" d="M92.37,315.67l-35.38,76.67"/>
    <path class="cls-5" d="M56.99,239l35.38,76.67"/>
    <path class="cls-5" d="M21.6,162.33l35.38,76.67"/>
    <path class="cls-5" d="M56.99,162.33v76.67"/>
    <path class="cls-5" d="M269.3,162.33L56.99,239"/>
    <path class="cls-5" d="M233.91,85.67l35.38,76.67"/>
    <path class="cls-5" d="M269.3,85.67v76.67"/>
    <path class="cls-5" d="M233.91,9l35.38,76.67"/>
    <path class="cls-5" d="M233.91,9v76.67"/>
    <path class="cls-5" d="M92.37,85.67l-35.38,76.67"/>
    <path class="cls-5" d="M269.3,85.67L56.99,162.33"/>
    <path class="cls-5" d="M233.91,9l35.38,76.67"/>
    <path class="cls-5" d="M233.91,9L92.37,85.67"/>
    <path class="cls-5" d="M92.37,85.67L21.6,162.33"/>
    <path class="cls-5" d="M233.91,85.67L21.6,162.33"/>
    <path class="cls-5" d="M233.91,9v76.67"/>
    <path class="cls-5" d="M233.91,9L92.37,85.67"/>
    <path class="cls-5" d="M56.99,239l-35.38,76.67"/>
    <path class="cls-5" d="M21.6,162.33l35.38,76.67"/>
    <path class="cls-5" d="M56.99,162.33v76.67"/>
    <path class="cls-5" d="M269.3,162.33L56.99,239"/>
    <path class="cls-5" d="M233.91,85.67l35.38,76.67"/>
    <path class="cls-5" d="M269.3,85.67v76.67"/>
    <path class="cls-5" d="M233.91,9l35.38,76.67"/>
    <path class="cls-5" d="M233.91,9v76.67"/>
    <path class="cls-5" d="M92.37,85.67l-35.38,76.67"/>
    <path class="cls-5" d="M269.3,85.67L56.99,162.33"/>
    <path class="cls-5" d="M233.91,9l35.38,76.67"/>
    <path class="cls-5" d="M233.91,9L92.37,85.67"/>
    <path class="cls-5" d="M92.37,85.67L21.6,162.33"/>
    <path class="cls-5" d="M233.91,85.67L21.6,162.33"/>
    <path class="cls-5" d="M233.91,9v76.67"/>
    <path class="cls-5" d="M233.91,9L92.37,85.67"/>
    <path class="cls-5" d="M21.6,315.67v76.67"/>
    <path class="cls-5" d="M56.99,315.67l-35.38,76.67"/>
    <path class="cls-5" d="M56.99,239v76.67"/>
    <path class="cls-5" d="M21.6,162.33l35.38,76.67"/>
    <path class="cls-5" d="M56.99,162.33v76.67"/>
    <path class="cls-5" d="M269.3,162.33L56.99,239"/>
    <path class="cls-5" d="M233.91,85.67l35.38,76.67"/>
    <path class="cls-5" d="M269.3,85.67v76.67"/>
    <path class="cls-5" d="M233.91,9l35.38,76.67"/>
    <path class="cls-5" d="M233.91,9v76.67"/>
    <path class="cls-5" d="M92.37,85.67l-35.38,76.67"/>
    <path class="cls-5" d="M269.3,85.67L56.99,162.33"/>
    <path class="cls-5" d="M233.91,9l35.38,76.67"/>
    <path class="cls-5" d="M233.91,9L92.37,85.67"/>
    <path class="cls-5" d="M92.37,85.67L21.6,162.33"/>
    <path class="cls-5" d="M233.91,85.67L21.6,162.33"/>
    <path class="cls-5" d="M233.91,9v76.67"/>
    <path class="cls-5" d="M233.91,9L92.37,85.67"/>
    <path class="cls-5" d="M56.99,239l-35.38,76.67"/>
    <path class="cls-5" d="M21.6,162.33l35.38,76.67"/>
    <path class="cls-5" d="M56.99,162.33v76.67"/>
    <path class="cls-5" d="M269.3,162.33L56.99,239"/>
    <path class="cls-5" d="M233.91,85.67l35.38,76.67"/>
    <path class="cls-5" d="M269.3,85.67v76.67"/>
    <path class="cls-5" d="M233.91,9l35.38,76.67"/>
    <path class="cls-5" d="M233.91,9v76.67"/>
    <path class="cls-5" d="M92.37,85.67l-35.38,76.67"/>
    <path class="cls-5" d="M269.3,85.67L56.99,162.33"/>
    <path class="cls-5" d="M233.91,9l35.38,76.67"/>
    <path class="cls-5" d="M233.91,9L92.37,85.67"/>
    <path class="cls-5" d="M92.37,85.67L21.6,162.33"/>
    <path class="cls-5" d="M233.91,85.67L21.6,162.33"/>
    <path class="cls-5" d="M233.91,9v76.67"/>
    <path class="cls-5" d="M233.91,9L92.37,85.67"/>
    <circle class="cls-6" cx="233.91" cy="9" r="8"/>
    <g>
      <circle class="cls-6" cx="92.37" cy="85.67" r="8"/>
      <text class="cls-4" transform="translate(77.97 68.87)"><tspan x="0" y="0">000</tspan></text>
      <text class="cls-1" transform="translate(77.97 68.87)"><tspan x="0" y="0">000</tspan></text>
      <text class="cls-4" transform="translate(77.97 68.87)"><tspan x="0" y="0">M14</tspan></text>
    </g>
    <g>
      <circle class="cls-6" cx="233.91" cy="85.67" r="8"/>
      <text class="cls-4" transform="translate(219.51 68.87)"><tspan x="0" y="0">000</tspan></text>
      <text class="cls-1" transform="translate(219.51 68.87)"><tspan x="0" y="0">000</tspan></text>
      <text class="cls-4" transform="translate(219.51 68.87)"><tspan x="0" y="0">M13</tspan></text>
    </g>
    <circle class="cls-6" cx="21.6" cy="162.33" r="8"/>
    <g>
      <circle class="cls-6" cx="269.3" cy="85.67" r="8"/>
      <text class="cls-4" transform="translate(254.89 68.87)"><tspan x="0" y="0">000</tspan></text>
      <text class="cls-1" transform="translate(254.89 68.87)"><tspan x="0" y="0">000</tspan></text>
      <text class="cls-4" transform="translate(254.89 68.87)"><tspan x="0" y="0">M12</tspan></text>
    </g>
    <circle class="cls-6" cx="56.99" cy="162.33" r="8"/>
    <circle class="cls-6" cx="269.3" cy="162.33" r="8"/>
    <circle class="cls-6" cx="56.99" cy="239" r="8"/>
    <g>
      <circle class="cls-6" cx="21.6" cy="315.67" r="8"/>
      <text class="cls-4" transform="translate(7.2 298.87)"><tspan x="0" y="0">000</tspan></text>
      <text class="cls-1" transform="translate(7.2 298.87)"><tspan x="0" y="0">000</tspan></text>
      <text class="cls-4" transform="translate(7.2 298.87)"><tspan x="0" y="0">M11</tspan></text>
    </g>
    <g>
      <circle class="cls-6" cx="56.99" cy="315.67" r="8"/>
      <text class="cls-4" transform="translate(42.59 298.87)"><tspan x="0" y="0">000</tspan></text>
      <text class="cls-1" transform="translate(42.59 298.87)"><tspan x="0" y="0">000</tspan></text>
      <text class="cls-4" transform="translate(42.59 298.87)"><tspan x="0" y="0">M10</tspan></text>
    </g>
    <g>
      <circle class="cls-6" cx="21.6" cy="392.33" r="8"/>
      <text class="cls-3" transform="translate(2.4 420.33)"><tspan x="0" y="0">0000</tspan></text>
      <text class="cls-2" transform="translate(2.4 420.33)"><tspan x="0" y="0">0000</tspan></text>
      <text class="cls-3" transform="translate(2.4 420.33)"><tspan x="0" y="0">1000</tspan></text>
    </g>
    <g>
      <circle class="cls-6" cx="92.37" cy="315.67" r="8"/>
      <text class="cls-4" transform="translate(82.77 298.87)"><tspan x="0" y="0">00</tspan></text>
      <text class="cls-1" transform="translate(82.77 298.87)"><tspan x="0" y="0">00</tspan></text>
      <text class="cls-4" transform="translate(82.77 298.87)"><tspan x="0" y="0">M9</tspan></text>
    </g>
    <g>
      <circle class="cls-6" cx="56.99" cy="392.33" r="8"/>
      <text class="cls-3" transform="translate(37.78 420.33)"><tspan x="0" y="0">0000</tspan></text>
      <text class="cls-2" transform="translate(37.78 420.33)"><tspan x="0" y="0">0000</tspan></text>
      <text class="cls-3" transform="translate(37.78 420.33)"><tspan x="0" y="0">1000</tspan></text>
    </g>
    <g>
      <circle class="cls-6" cx="92.37" cy="392.33" r="8"/>
      <text class="cls-3" transform="translate(73.17 420.33)"><tspan x="0" y="0">0000</tspan></text>
      <text class="cls-2" transform="translate(73.17 420.33)"><tspan x="0" y="0">0000</tspan></text>
      <text class="cls-3" transform="translate(73.17 420.33)"><tspan x="0" y="0">1000</tspan></text>
    </g>
    <g>
      <circle class="cls-6" cx="340.06" cy="85.67" r="8"/>
      <text class="cls-4" transform="translate(330.46 68.87)"><tspan x="0" y="0">00</tspan></text>
      <text class="cls-1" transform="translate(330.46 68.87)"><tspan x="0" y="0">00</tspan></text>
      <text class="cls-4" transform="translate(330.46 68.87)"><tspan x="0" y="0">M8</tspan></text>
    </g>
    <circle class="cls-6" cx="163.14" cy="162.33" r="8"/>
    <circle class="cls-6" cx="375.45" cy="162.33" r="8"/>
    <circle class="cls-6" cx="198.53" cy="239" r="8"/>
    <circle class="cls-6" cx="481.6" cy="162.33" r="8"/>
    <circle class="cls-6" cx="304.68" cy="239" r="8"/>
    <circle class="cls-6" cx="410.83" cy="239" r="8"/>
    <g>
      <circle class="cls-6" cx="163.14" cy="315.67" r="8"/>
      <text class="cls-4" transform="translate(153.54 298.87)"><tspan x="0" y="0">00</tspan></text>
      <text class="cls-1" transform="translate(153.54 298.87)"><tspan x="0" y="0">00</tspan></text>
      <text class="cls-4" transform="translate(153.54 298.87)"><tspan x="0" y="0">M7</tspan></text>
    </g>
    <g>
      <circle class="cls-6" cx="198.53" cy="315.67" r="8"/>
      <text class="cls-4" transform="translate(188.92 298.87)"><tspan x="0" y="0">00</tspan></text>
      <text class="cls-1" transform="translate(188.92 298.87)"><tspan x="0" y="0">00</tspan></text>
      <text class="cls-4" transform="translate(188.92 298.87)"><tspan x="0" y="0">M6</tspan></text>
    </g>
    <g>
      <circle class="cls-6" cx="163.14" cy="392.33" r="8"/>
      <text class="cls-3" transform="translate(143.94 420.33)"><tspan x="0" y="0">0000</tspan></text>
      <text class="cls-2" transform="translate(143.94 420.33)"><tspan x="0" y="0">0000</tspan></text>
      <text class="cls-3" transform="translate(143.94 420.33)"><tspan x="0" y="0">1000</tspan></text>
    </g>
    <g>
      <circle class="cls-6" cx="233.91" cy="315.67" r="8"/>
      <text class="cls-4" transform="translate(224.31 298.87)"><tspan x="0" y="0">00</tspan></text>
      <text class="cls-1" transform="translate(224.31 298.87)"><tspan x="0" y="0">00</tspan></text>
      <text class="cls-4" transform="translate(224.31 298.87)"><tspan x="0" y="0">M5</tspan></text>
    </g>
    <g>
      <circle class="cls-6" cx="198.53" cy="392.33" r="8"/>
      <text class="cls-3" transform="translate(179.32 420.33)"><tspan x="0" y="0">0000</tspan></text>
      <text class="cls-2" transform="translate(179.32 420.33)"><tspan x="0" y="0">0000</tspan></text>
      <text class="cls-3" transform="translate(179.32 420.33)"><tspan x="0" y="0">1000</tspan></text>
    </g>
    <g>
      <circle class="cls-6" cx="233.91" cy="392.33" r="8"/>
      <text class="cls-3" transform="translate(214.71 420.33)"><tspan x="0" y="0">0000</tspan></text>
      <text class="cls-2" transform="translate(214.71 420.33)"><tspan x="0" y="0">0000</tspan></text>
      <text class="cls-3" transform="translate(214.71 420.33)"><tspan x="0" y="0">1000</tspan></text>
    </g>
    <g>
      <circle class="cls-6" cx="304.68" cy="315.67" r="8"/>
      <text class="cls-3" transform="translate(285.48 343.67)"><tspan x="0" y="0">0000</tspan></text>
      <text class="cls-2" transform="translate(285.48 343.67)"><tspan x="0" y="0">0000</tspan></text>
      <text class="cls-3" transform="translate(285.48 343.67)"><tspan x="0" y="0">1000</tspan></text>
      <text class="cls-4" transform="translate(295.08 298.87)"><tspan x="0" y="0">00</tspan></text>
      <text class="cls-1" transform="translate(295.08 298.87)"><tspan x="0" y="0">00</tspan></text>
      <text class="cls-4" transform="translate(295.08 298.87)"><tspan x="0" y="0">M4</tspan></text>
    </g>
    <g>
      <circle class="cls-6" cx="340.06" cy="315.67" r="8"/>
      <text class="cls-3" transform="translate(320.86 343.67)"><tspan x="0" y="0">0000</tspan></text>
      <text class="cls-2" transform="translate(320.86 343.67)"><tspan x="0" y="0">0000</tspan></text>
      <text class="cls-3" transform="translate(320.86 343.67)"><tspan x="0" y="0">1000</tspan></text>
      <text class="cls-4" transform="translate(330.46 298.87)"><tspan x="0" y="0">00</tspan></text>
      <text class="cls-1" transform="translate(330.46 298.87)"><tspan x="0" y="0">00</tspan></text>
      <text class="cls-4" transform="translate(330.46 298.87)"><tspan x="0" y="0">M3</tspan></text>
    </g>
    <g>
      <circle class="cls-6" cx="375.45" cy="315.67" r="8"/>
      <text class="cls-4" transform="translate(365.85 298.87)"><tspan x="0" y="0">00</tspan></text>
      <text class="cls-1" transform="translate(365.85 298.87)"><tspan x="0" y="0">00</tspan></text>
      <text class="cls-4" transform="translate(365.85 298.87)"><tspan x="0" y="0">M2</tspan></text>
    </g>
    <g>
      <circle class="cls-6" cx="410.83" cy="315.67" r="8"/>
      <text class="cls-4" transform="translate(401.23 298.87)"><tspan x="0" y="0">00</tspan></text>
      <text class="cls-1" transform="translate(401.23 298.87)"><tspan x="0" y="0">00</tspan></text>
      <text class="cls-4" transform="translate(401.23 298.87)"><tspan x="0" y="0">M1</tspan></text>
    </g>
    <g>
      <circle class="cls-6" cx="375.45" cy="392.33" r="8"/>
      <text class="cls-3" transform="translate(356.25 420.33)"><tspan x="0" y="0">0000</tspan></text>
      <text class="cls-2" transform="translate(356.25 420.33)"><tspan x="0" y="0">0000</tspan></text>
      <text class="cls-3" transform="translate(356.25 420.33)"><tspan x="0" y="0">1000</tspan></text>
    </g>
    <g>
      <circle class="cls-6" cx="446.22" cy="315.67" r="8"/>
      <text class="cls-4" transform="translate(436.62 298.87)"><tspan x="0" y="0">00</tspan></text>
      <text class="cls-1" transform="translate(436.62 298.87)"><tspan x="0" y="0">00</tspan></text>
      <text class="cls-4" transform="translate(436.62 298.87)"><tspan x="0" y="0">M0</tspan></text>
    </g>
    <g>
      <circle class="cls-6" cx="410.83" cy="392.33" r="8"/>
      <text class="cls-3" transform="translate(391.63 420.33)"><tspan x="0" y="0">0000</tspan></text>
      <text class="cls-2" transform="translate(391.63 420.33)"><tspan x="0" y="0">0000</tspan></text>
      <text class="cls-3" transform="translate(391.63 420.33)"><tspan x="0" y="0">1000</tspan></text>
    </g>
    <g>
      <circle class="cls-6" cx="446.22" cy="392.33" r="8"/>
      <text class="cls-3" transform="translate(427.02 420.33)"><tspan x="0" y="0">0000</tspan></text>
      <text class="cls-2" transform="translate(427.02 420.33)"><tspan x="0" y="0">0000</tspan></text>
      <text class="cls-3" transform="translate(427.02 420.33)"><tspan x="0" y="0">1000</tspan></text>
    </g>
  </g>
</svg>